<!DOCTYPE svg PUBLIC "-//W3C//DTD SVG 1.1//EN" "http://www.w3.org/Graphics/SVG/1.1/DTD/svg11.dtd">
<!-- Uploaded to: SVG Repo, www.svgrepo.com, Transformed by: SVG Repo Mixer Tools -->
<svg width="800px" height="800px" viewBox="-10.24 -10.24 84.48 84.48" xmlns="http://www.w3.org/2000/svg" xmlns:xlink="http://www.w3.org/1999/xlink" aria-hidden="true" role="img" class="iconify iconify--emojione-monotone" preserveAspectRatio="xMidYMid meet" fill="#000000" stroke="#000000" stroke-width="0.64">
<g id="SVGRepo_bgCarrier" stroke-width="0">
<path transform="translate(-10.24, -10.24), scale(5.28)" fill="#000000" d="M9.166.33a2.25 2.25 0 00-2.332 0l-5.25 3.182A2.25 2.25 0 00.5 5.436v5.128a2.25 2.25 0 001.084 1.924l5.25 3.182a2.25 2.25 0 002.332 0l5.25-3.182a2.25 2.25 0 001.084-1.924V5.436a2.25 2.25 0 00-1.084-1.924L9.166.33z" strokewidth="0"/>
</g>
<g id="SVGRepo_tracerCarrier" stroke-linecap="round" stroke-linejoin="round"/>
<g id="SVGRepo_iconCarrier">
<path d="M44.656 26.519v-8.698c0-.364-.199-.67-.48-.86L54 2H35.164L32 6.746L28.836 2H10l9.822 14.96c-.281.19-.48.497-.48.861v8.698C14.861 30.187 12 35.758 12 42c0 11.045 8.955 20 20 20c.682 0 1.354-.035 2.018-.102C44.115 60.887 52 52.365 52 42c0-6.242-2.863-11.813-7.344-15.481M40.826 3h6.328l-8.826 13.239l-3.164-4.746L40.826 3m.666 17.985l.973-1.458c.053.125.082.261.082.404v4.219a.99.99 0 0 1-.297.7C39.25 23.052 35.752 22 32 22a19.87 19.87 0 0 0-10.252 2.851a1 1 0 0 1-.297-.701v-4.219c0-.143.031-.28.082-.404l.973 1.459h18.986zM16.846 3h6.328l11.324 16.985H28.17L16.846 3M32 59c-9.389 0-17-7.611-17-17c0-9.388 7.611-17 17-17c9.387 0 17 7.612 17 17c0 9.389-7.613 17-17 17" fill="#B4B4B4"/>
<path d="M32.236 26.546c-8.666 0-15.691 7.036-15.691 15.718c0 2.59.637 5.025 1.744 7.178a17.44 17.44 0 0 1-.871-5.432c0-9.203 7.109-16.725 16.127-17.397a15.711 15.711 0 0 0-1.309-.067" fill="#B4B4B4"/>
<path d="M38.533 55.139a17.733 17.733 0 0 1-4.988 2.316a15.905 15.905 0 0 0 6.918-2.578c7.203-4.842 9.158-14.5 4.367-21.576c-.244-.36-.508-.698-.777-1.031c4.427 7.736 2.117 17.736-5.52 22.869" fill="#B4B4B4"/>
<path d="M38.448 49.207h-9.104v-2.275a3.036 3.036 0 0 1 3.034-3.035a6.067 6.067 0 0 0 6.069-6.068c0-2.957-1.5-6.828-6.827-6.828c-3.549 0-6.069 2.695-6.069 6.828h3.793c0-1.561 1.177-3.002 2.702-3.002c1.816 0 2.608 1.195 2.608 2.244a3.034 3.034 0 0 1-3.034 3.033a6.069 6.069 0 0 0-6.069 6.07V53h12.896v-3.793z" fill="#B4B4B4"/>
</g>
</svg>